<svg xmlns="http://www.w3.org/2000/svg" viewBox="0 0 11.06 19.13"><defs><style>.cls-1{fill:#fff;stroke:#fff;}.cls-1,.cls-2,.cls-3{stroke-miterlimit:10;}.cls-2,.cls-3{fill:#fc0606;stroke:#fc0606;}.cls-2{stroke-width:0.5px;}.cls-3{stroke-width:0.25px;}</style></defs><g id="Camada_2" data-name="Camada 2"><rect class="cls-1" x="1.49" y="0.55" width="8.15" height="17.46"/><path class="cls-2" d="M17.27,21.32V7.3h0V6.22s-.05-.1-.05-.15.05.1.05.15V3.87a1.17,1.17,0,0,0-1.19-1.18H7.91A1.17,1.17,0,0,0,6.72,3.87V21.32Zm-1.15-1.24H12.6V16.6H11.4v3.48H7.89V3.8h8.23V20.08Z" transform="translate(-6.47 -2.44)"/><rect class="cls-3" x="2.65" y="4.29" width="1.18" height="0.98"/><rect class="cls-3" x="4.97" y="12.16" width="1.18" height="0.98"/><rect class="cls-3" x="4.97" y="6.24" width="1.18" height="0.98"/><rect class="cls-3" x="4.97" y="10.15" width="1.18" height="0.98"/><rect class="cls-3" x="4.97" y="8.2" width="1.18" height="0.98"/><rect class="cls-3" x="2.65" y="12.16" width="1.18" height="0.98"/><rect class="cls-3" x="2.65" y="6.24" width="1.18" height="0.98"/><rect class="cls-3" x="4.97" y="4.29" width="1.18" height="0.98"/><rect class="cls-3" x="2.65" y="13.91" width="1.18" height="0.98"/><rect class="cls-3" x="2.65" y="10.15" width="1.18" height="0.98"/><rect class="cls-3" x="2.65" y="8.2" width="1.18" height="0.98"/><rect class="cls-3" x="7.28" y="6.24" width="1.18" height="0.98"/><rect class="cls-3" x="7.28" y="4.29" width="1.18" height="0.98"/><rect class="cls-3" x="7.28" y="10.15" width="1.18" height="0.98"/><rect class="cls-3" x="7.28" y="12.16" width="1.18" height="0.98"/><rect class="cls-3" x="7.28" y="8.2" width="1.18" height="0.98"/><rect class="cls-3" x="7.28" y="13.91" width="1.18" height="0.98"/><rect class="cls-3" x="2.65" y="2.33" width="1.18" height="0.98"/><rect class="cls-3" x="4.97" y="2.33" width="1.18" height="0.98"/><rect class="cls-3" x="7.28" y="2.33" width="1.18" height="0.98"/></g></svg>