<svg xmlns="http://www.w3.org/2000/svg" viewBox="0 0 11 19.03"><defs><style>.cls-1{fill:#fff;stroke:#fff;}.cls-1,.cls-2,.cls-3{stroke-miterlimit:10;}.cls-2,.cls-3{fill:#ffd55f;stroke:#ffd55f;}.cls-2{stroke-width:0.5px;}.cls-3{stroke-width:0.25px;}</style></defs><g id="Camada_2" data-name="Camada 2"><rect class="cls-1" x="1.48" y="0.55" width="8.1" height="17.37"/><path class="cls-2" d="M17.25,21.07V7.13h0V6.06s-.05-.1-.05-.15.05.1.05.15V3.72a1.16,1.16,0,0,0-1.18-1.17H7.93A1.16,1.16,0,0,0,6.75,3.72V21.07Zm-1.16-1.23h-3.5V16.38H11.41v3.46H7.91V3.65h8.18V19.84Z" transform="translate(-6.5 -2.3)"/><rect class="cls-3" x="2.64" y="4.26" width="1.18" height="0.97"/><rect class="cls-3" x="4.94" y="12.1" width="1.18" height="0.97"/><rect class="cls-3" x="4.94" y="6.21" width="1.18" height="0.97"/><rect class="cls-3" x="4.94" y="10.1" width="1.18" height="0.97"/><rect class="cls-3" x="4.94" y="8.16" width="1.18" height="0.97"/><rect class="cls-3" x="2.64" y="12.1" width="1.18" height="0.97"/><rect class="cls-3" x="2.64" y="6.21" width="1.18" height="0.97"/><rect class="cls-3" x="4.94" y="4.26" width="1.18" height="0.97"/><rect class="cls-3" x="2.64" y="13.84" width="1.18" height="0.97"/><rect class="cls-3" x="2.64" y="10.1" width="1.18" height="0.97"/><rect class="cls-3" x="2.64" y="8.16" width="1.18" height="0.97"/><rect class="cls-3" x="7.25" y="6.21" width="1.18" height="0.97"/><rect class="cls-3" x="7.25" y="4.26" width="1.18" height="0.97"/><rect class="cls-3" x="7.25" y="10.1" width="1.18" height="0.97"/><rect class="cls-3" x="7.25" y="12.1" width="1.18" height="0.97"/><rect class="cls-3" x="7.25" y="8.16" width="1.18" height="0.97"/><rect class="cls-3" x="7.25" y="13.84" width="1.18" height="0.97"/><rect class="cls-3" x="2.64" y="2.32" width="1.18" height="0.97"/><rect class="cls-3" x="4.94" y="2.32" width="1.18" height="0.97"/><rect class="cls-3" x="7.25" y="2.32" width="1.18" height="0.97"/></g></svg>