<svg xmlns="http://www.w3.org/2000/svg" viewBox="0 0 13.05 19.13"><defs><style>.cls-1{fill:#fff;stroke:#fff;}.cls-1,.cls-2,.cls-3,.cls-4{stroke-miterlimit:10;}.cls-2,.cls-3{fill:#666;stroke:#666;}.cls-2{stroke-width:0.5px;}.cls-3{stroke-width:0.25px;}.cls-4{fill:red;stroke:red;}</style></defs><g id="Camada_2" data-name="Camada 2"><rect class="cls-1" x="1.49" y="1.71" width="8.15" height="16.3"/><path class="cls-2" d="M16.41,21.32V7.3h0V6.22s-.05-.1-.05-.15.05.1.05.15V3.87a1.16,1.16,0,0,0-1.19-1.18H7A1.17,1.17,0,0,0,5.85,3.87V21.32Zm-1.16-1.24H11.73V16.6H10.54v3.48H7V3.8h8.23V20.08Z" transform="translate(-5.6 -2.44)"/><rect class="cls-3" x="2.65" y="4.29" width="1.18" height="0.98"/><rect class="cls-3" x="4.97" y="12.16" width="1.18" height="0.98"/><rect class="cls-3" x="4.97" y="6.24" width="1.18" height="0.98"/><rect class="cls-3" x="4.97" y="10.15" width="1.18" height="0.98"/><rect class="cls-3" x="4.97" y="8.2" width="1.18" height="0.98"/><rect class="cls-3" x="2.65" y="12.16" width="1.18" height="0.98"/><rect class="cls-3" x="2.65" y="6.24" width="1.18" height="0.98"/><rect class="cls-3" x="4.97" y="4.29" width="1.18" height="0.98"/><rect class="cls-3" x="2.65" y="13.91" width="1.18" height="0.98"/><rect class="cls-3" x="2.65" y="10.15" width="1.18" height="0.98"/><rect class="cls-3" x="2.65" y="8.2" width="1.18" height="0.98"/><rect class="cls-3" x="7.28" y="6.24" width="1.18" height="0.98"/><rect class="cls-3" x="7.28" y="4.29" width="1.18" height="0.98"/><rect class="cls-3" x="7.28" y="10.15" width="1.18" height="0.98"/><rect class="cls-3" x="7.28" y="12.16" width="1.18" height="0.98"/><rect class="cls-3" x="7.28" y="8.2" width="1.18" height="0.98"/><rect class="cls-3" x="7.28" y="13.91" width="1.18" height="0.98"/><rect class="cls-3" x="2.65" y="2.33" width="1.18" height="0.98"/><rect class="cls-3" x="4.97" y="2.33" width="1.18" height="0.98"/><rect class="cls-3" x="7.28" y="2.33" width="1.18" height="0.98"/><path class="cls-4" d="M16.05,14.73a.27.27,0,0,1-.25-.17A20.75,20.75,0,0,1,14,7.32a2.1,2.1,0,0,1,4.19,0,20.75,20.75,0,0,1-1.84,7.24A.3.3,0,0,1,16.05,14.73Z" transform="translate(-5.6 -2.44)"/><path class="cls-4" d="M16.05,18.43a1.54,1.54,0,1,1,1.54-1.54A1.53,1.53,0,0,1,16.05,18.43Z" transform="translate(-5.6 -2.44)"/></g></svg>