<svg id="Camada_1" data-name="Camada 1" xmlns="http://www.w3.org/2000/svg" viewBox="0 0 9.57 16.5"><defs><style>.cls-1{fill:#fff;stroke:#fff;}.cls-1,.cls-2,.cls-3{stroke-miterlimit:10;}.cls-2,.cls-3{fill:#04d305;stroke:#04d305;}.cls-2{stroke-width:0.5px;}.cls-3{stroke-width:0.25px;}</style></defs><rect class="cls-1" x="1.31" y="0.51" width="7" height="15"/><path class="cls-2" d="M12.5,16.24V4.2h0V3.28s0-.09,0-.13,0,.08,0,.13v-2a1,1,0,0,0-1-1h-7a1,1,0,0,0-1,1v15H12.5c-.06,0,0,0,0,0Zm-1-1.06h-3v-3h-1v3h-3V1.2h7.07v14Z" transform="translate(-3.19 0.01)"/><rect class="cls-3" x="2.31" y="3.72" width="1.02" height="0.84"/><rect class="cls-3" x="4.3" y="10.48" width="1.02" height="0.84"/><rect class="cls-3" x="4.3" y="5.4" width="1.02" height="0.84"/><rect class="cls-3" x="4.3" y="8.76" width="1.02" height="0.84"/><rect class="cls-3" x="4.3" y="7.08" width="1.02" height="0.84"/><rect class="cls-3" x="2.31" y="10.48" width="1.02" height="0.84"/><rect class="cls-3" x="2.31" y="5.4" width="1.02" height="0.84"/><rect class="cls-3" x="4.3" y="3.72" width="1.02" height="0.84"/><rect class="cls-3" x="2.31" y="11.99" width="1.02" height="0.84"/><rect class="cls-3" x="2.31" y="8.76" width="1.02" height="0.84"/><rect class="cls-3" x="2.31" y="7.08" width="1.02" height="0.84"/><rect class="cls-3" x="6.29" y="5.4" width="1.02" height="0.84"/><rect class="cls-3" x="6.29" y="3.72" width="1.02" height="0.84"/><rect class="cls-3" x="6.29" y="8.76" width="1.02" height="0.84"/><rect class="cls-3" x="6.29" y="10.48" width="1.02" height="0.84"/><rect class="cls-3" x="6.29" y="7.08" width="1.02" height="0.84"/><rect class="cls-3" x="6.29" y="11.99" width="1.02" height="0.84"/><rect class="cls-3" x="2.31" y="2.04" width="1.02" height="0.84"/><rect class="cls-3" x="4.3" y="2.04" width="1.02" height="0.84"/><rect class="cls-3" x="6.29" y="2.04" width="1.02" height="0.84"/></svg>