<svg xmlns="http://www.w3.org/2000/svg" viewBox="0 0 11.03 19.06"><defs><style>.cls-1{fill:#fff;stroke:#fff;}.cls-1,.cls-2,.cls-3{stroke-miterlimit:10;}.cls-2,.cls-3{fill:#666;stroke:#666;}.cls-2{stroke-width:0.5px;}.cls-3{stroke-width:0.25px;}</style></defs><g id="Camada_2" data-name="Camada 2"><rect class="cls-1" x="1.48" y="1.71" width="8.12" height="16.24"/><path class="cls-2" d="M17.26,21.32v-14h0V6.27s-.05-.1-.05-.15.05.1.05.15V3.93a1.16,1.16,0,0,0-1.18-1.18H7.92A1.16,1.16,0,0,0,6.74,3.93V21.32ZM16.1,20.08H12.59V16.61H11.41v3.47H7.9V3.86h8.2V20.08Z" transform="translate(-6.49 -2.5)"/><rect class="cls-3" x="2.65" y="4.27" width="1.18" height="0.97"/><rect class="cls-3" x="4.95" y="12.12" width="1.18" height="0.97"/><rect class="cls-3" x="4.95" y="6.22" width="1.18" height="0.97"/><rect class="cls-3" x="4.95" y="10.12" width="1.18" height="0.97"/><rect class="cls-3" x="4.95" y="8.17" width="1.18" height="0.97"/><rect class="cls-3" x="2.65" y="12.12" width="1.18" height="0.97"/><rect class="cls-3" x="2.65" y="6.22" width="1.18" height="0.97"/><rect class="cls-3" x="4.95" y="4.27" width="1.18" height="0.97"/><rect class="cls-3" x="2.65" y="13.87" width="1.18" height="0.97"/><rect class="cls-3" x="2.65" y="10.12" width="1.18" height="0.97"/><rect class="cls-3" x="2.65" y="8.17" width="1.18" height="0.97"/><rect class="cls-3" x="7.26" y="6.22" width="1.18" height="0.97"/><rect class="cls-3" x="7.26" y="4.27" width="1.18" height="0.97"/><rect class="cls-3" x="7.26" y="10.12" width="1.18" height="0.97"/><rect class="cls-3" x="7.26" y="12.12" width="1.18" height="0.97"/><rect class="cls-3" x="7.26" y="8.17" width="1.18" height="0.97"/><rect class="cls-3" x="7.26" y="13.87" width="1.18" height="0.97"/><rect class="cls-3" x="2.65" y="2.32" width="1.18" height="0.97"/><rect class="cls-3" x="4.95" y="2.32" width="1.18" height="0.97"/><rect class="cls-3" x="7.26" y="2.32" width="1.18" height="0.97"/></g></svg>