<?xml version="1.0" encoding="utf-8"?>
<!-- Generator: Adobe Illustrator 15.1.0, SVG Export Plug-In . SVG Version: 6.00 Build 0)  -->
<!DOCTYPE svg PUBLIC "-//W3C//DTD SVG 1.1//EN" "http://www.w3.org/Graphics/SVG/1.1/DTD/svg11.dtd">
<svg version="1.1" id="Camada_1" xmlns="http://www.w3.org/2000/svg" xmlns:xlink="http://www.w3.org/1999/xlink" x="0px" y="0px"
	 width="40px" height="40px" viewBox="0 0 40 40" enable-background="new 0 0 40 40" xml:space="preserve">
<path fill="#EAEAEA" d="M37.63,37.971l0.009-17.896c-0.066,0-0.066,0-0.131,0c0.064,0,0.064,0,0.131,0v-1.371
	c0-0.066-0.066-0.131-0.066-0.196c0,0.065,0.066,0.13,0.066,0.196v-0.066v-2.938c0-0.849-0.653-1.502-1.504-1.502H25.815
	c-0.849,0-1.502,0.653-1.502,1.502v10.026v-1.078c0,0.486,0,0.9,0,1.291c0,0.066,0,0.17,0,0.234v1.115v8.898
	c0,0.195,0-14.85,0,0.766v1.02H37.63C37.538,37.971,37.63,37.971,37.63,37.971L37.63,37.971z M36.17,36.387h-4.443v-4.441h-1.502
	v4.441h-4.44v-20.77H36.17V36.387L36.17,36.387z"/>
<rect x="6.912" y="10.084" fill="#EAEAEA" width="2.3" height="1.9"/>
<rect x="11.412" y="25.385" fill="#EAEAEA" width="2.3" height="1.899"/>
<rect x="11.412" y="13.884" fill="#EAEAEA" width="2.3" height="1.9"/>
<rect x="11.412" y="21.484" fill="#EAEAEA" width="2.3" height="1.9"/>
<rect x="11.412" y="17.685" fill="#EAEAEA" width="2.3" height="1.899"/>
<rect x="6.912" y="25.385" fill="#EAEAEA" width="2.3" height="1.899"/>
<rect x="6.912" y="13.884" fill="#EAEAEA" width="2.3" height="1.9"/>
<rect x="11.412" y="10.084" fill="#EAEAEA" width="2.3" height="1.9"/>
<rect x="6.912" y="28.794" fill="#EAEAEA" width="2.3" height="1.899"/>
<rect x="6.912" y="21.484" fill="#EAEAEA" width="2.3" height="1.9"/>
<rect x="6.912" y="17.685" fill="#EAEAEA" width="2.3" height="1.899"/>
<rect x="15.912" y="13.884" fill="#EAEAEA" width="2.3" height="1.9"/>
<rect x="15.912" y="10.084" fill="#EAEAEA" width="2.3" height="1.9"/>
<rect x="15.912" y="21.484" fill="#EAEAEA" width="2.3" height="1.9"/>
<rect x="15.912" y="25.385" fill="#EAEAEA" width="2.3" height="1.899"/>
<rect x="15.912" y="17.685" fill="#EAEAEA" width="2.3" height="1.899"/>
<rect x="15.912" y="28.794" fill="#EAEAEA" width="2.3" height="1.899"/>
<path fill="#EAEAEA" d="M22.75,38l0.012-27.087c-0.1,0-0.1,0-0.199,0c0.1,0,0.1,0,0.199,0V8.837c0-0.099-0.1-0.198-0.1-0.296
	c0,0.098,0.1,0.197,0.1,0.296V8.738V4.289c0-1.285-1-2.273-2.301-2.273h-15.8c-1.3,0-2.3,0.989-2.3,2.273v15.175v-1.631
	c0,0.735,0,1.362,0,1.956c0,0.098,0,0.256,0,0.355v1.684v13.47c0,0.295,0-22.475,0,1.158V38H22.75C22.609,38,22.75,38,22.75,38
	L22.75,38z M20.513,35.603h-6.8v-6.722h-2.3v6.722h-6.8V4.166h15.9V35.603L20.513,35.603z"/>
<rect x="6.912" y="6.284" fill="#EAEAEA" width="2.3" height="1.9"/>
<rect x="11.412" y="6.284" fill="#EAEAEA" width="2.3" height="1.9"/>
<rect x="15.912" y="6.284" fill="#EAEAEA" width="2.3" height="1.9"/>
<rect x="27.286" y="19.738" fill="#EAEAEA" width="1.502" height="1.24"/>
<rect x="30.225" y="29.73" fill="#EAEAEA" width="1.502" height="1.24"/>
<rect x="30.225" y="22.219" fill="#EAEAEA" width="1.502" height="1.242"/>
<rect x="30.225" y="27.184" fill="#EAEAEA" width="1.502" height="1.24"/>
<rect x="30.225" y="24.701" fill="#EAEAEA" width="1.502" height="1.242"/>
<rect x="27.286" y="29.73" fill="#EAEAEA" width="1.502" height="1.24"/>
<rect x="27.286" y="22.219" fill="#EAEAEA" width="1.502" height="1.242"/>
<rect x="30.225" y="19.738" fill="#EAEAEA" width="1.502" height="1.24"/>
<rect x="27.286" y="31.957" fill="#EAEAEA" width="1.502" height="1.242"/>
<rect x="27.286" y="27.184" fill="#EAEAEA" width="1.502" height="1.24"/>
<rect x="27.286" y="24.701" fill="#EAEAEA" width="1.502" height="1.242"/>
<rect x="33.164" y="22.219" fill="#EAEAEA" width="1.501" height="1.242"/>
<rect x="33.164" y="19.738" fill="#EAEAEA" width="1.501" height="1.24"/>
<rect x="33.164" y="27.184" fill="#EAEAEA" width="1.501" height="1.24"/>
<rect x="33.164" y="29.73" fill="#EAEAEA" width="1.501" height="1.24"/>
<rect x="33.164" y="24.701" fill="#EAEAEA" width="1.501" height="1.242"/>
<rect x="33.164" y="31.957" fill="#EAEAEA" width="1.501" height="1.242"/>
<rect x="27.286" y="17.255" fill="#EAEAEA" width="1.502" height="1.241"/>
<rect x="30.225" y="17.255" fill="#EAEAEA" width="1.502" height="1.241"/>
<rect x="33.164" y="17.255" fill="#EAEAEA" width="1.501" height="1.241"/>
<g>
	<g>
		<path fill="#F7E74F" d="M34.773,8.386h-5.102V3.285c0-0.936-0.761-1.7-1.698-1.7c-0.94,0-1.7,0.762-1.7,1.7v5.101h-5.101
			c-0.936,0-1.699,0.762-1.699,1.699c0,0.938,0.764,1.7,1.699,1.7h5.101v5.1c0,0.935,0.762,1.699,1.7,1.699
			c0.934,0,1.698-0.761,1.698-1.699v-5.1h5.102c0.938,0,1.7-0.763,1.7-1.7C36.474,9.146,35.713,8.386,34.773,8.386z"/>
	</g>
</g>
</svg>
