<?xml version="1.0" encoding="utf-8"?>
<!-- Generator: Adobe Illustrator 15.1.0, SVG Export Plug-In . SVG Version: 6.00 Build 0)  -->
<!DOCTYPE svg PUBLIC "-//W3C//DTD SVG 1.1//EN" "http://www.w3.org/Graphics/SVG/1.1/DTD/svg11.dtd" [
	<!ENTITY ns_extend "http://ns.adobe.com/Extensibility/1.0/">
	<!ENTITY ns_ai "http://ns.adobe.com/AdobeIllustrator/10.0/">
	<!ENTITY ns_graphs "http://ns.adobe.com/Graphs/1.0/">
	<!ENTITY ns_vars "http://ns.adobe.com/Variables/1.0/">
	<!ENTITY ns_imrep "http://ns.adobe.com/ImageReplacement/1.0/">
	<!ENTITY ns_sfw "http://ns.adobe.com/SaveForWeb/1.0/">
	<!ENTITY ns_custom "http://ns.adobe.com/GenericCustomNamespace/1.0/">
	<!ENTITY ns_adobe_xpath "http://ns.adobe.com/XPath/1.0/">
]>
<svg version="1.1" id="Camada_1" xmlns:x="&ns_extend;" xmlns:i="&ns_ai;" xmlns:graph="&ns_graphs;"
	 xmlns="http://www.w3.org/2000/svg" xmlns:xlink="http://www.w3.org/1999/xlink" x="0px" y="0px" width="16px" height="16px"
	 viewBox="0 0 16 16" enable-background="new 0 0 16 16" xml:space="preserve">
<metadata>
	<sfw  xmlns="&ns_sfw;">
		<slices></slices>
		<sliceSourceBounds  height="16.5" width="9.572" y="-16.494" x="3.188" bottomLeftOrigin="true"></sliceSourceBounds>
	</sfw>
</metadata>
<rect x="4.5" y="0.5" fill="#FFFFFF" stroke="#FFFFFF" stroke-miterlimit="10" width="7" height="15"/>
<path fill="#FFD55F" stroke="#FFD55F" stroke-width="0.5" stroke-miterlimit="10" d="M12.504,16.244L12.51,4.2
	c-0.045,0-0.045,0-0.088,0c0.045,0,0.045,0,0.088,0V3.276c0-0.043-0.045-0.087-0.045-0.131c0,0.044,0.045,0.087,0.045,0.131V3.233
	V1.254c0-0.571-0.444-1.01-1.023-1.01H4.46c-0.579,0-1.023,0.439-1.023,1.01v6.748V7.277c0,0.327,0,0.606,0,0.869
	c0,0.045,0,0.114,0,0.159v0.748v5.991c0,0.13,0-9.995,0,0.515v0.686H12.504C12.442,16.244,12.504,16.244,12.504,16.244
	L12.504,16.244z M11.51,15.181H8.486v-2.991H7.462v2.991H4.439V1.2h7.07V15.181L11.51,15.181z"/>
<g>
	
		<rect x="5.502" y="3.711" fill="#FFD55F" stroke="#FFD55F" stroke-width="0.25" stroke-miterlimit="10" width="1.017" height="0.84"/>
	
		<rect x="7.491" y="10.477" fill="#FFD55F" stroke="#FFD55F" stroke-width="0.25" stroke-miterlimit="10" width="1.017" height="0.838"/>
	
		<rect x="7.491" y="5.392" fill="#FFD55F" stroke="#FFD55F" stroke-width="0.25" stroke-miterlimit="10" width="1.017" height="0.84"/>
	
		<rect x="7.491" y="8.751" fill="#FFD55F" stroke="#FFD55F" stroke-width="0.25" stroke-miterlimit="10" width="1.017" height="0.84"/>
	
		<rect x="7.491" y="7.072" fill="#FFD55F" stroke="#FFD55F" stroke-width="0.25" stroke-miterlimit="10" width="1.017" height="0.84"/>
	
		<rect x="5.502" y="10.477" fill="#FFD55F" stroke="#FFD55F" stroke-width="0.25" stroke-miterlimit="10" width="1.017" height="0.838"/>
	
		<rect x="5.502" y="5.392" fill="#FFD55F" stroke="#FFD55F" stroke-width="0.25" stroke-miterlimit="10" width="1.017" height="0.84"/>
	
		<rect x="7.491" y="3.711" fill="#FFD55F" stroke="#FFD55F" stroke-width="0.25" stroke-miterlimit="10" width="1.017" height="0.84"/>
	
		<rect x="5.502" y="11.982" fill="#FFD55F" stroke="#FFD55F" stroke-width="0.25" stroke-miterlimit="10" width="1.017" height="0.84"/>
	
		<rect x="5.502" y="8.751" fill="#FFD55F" stroke="#FFD55F" stroke-width="0.25" stroke-miterlimit="10" width="1.017" height="0.84"/>
	
		<rect x="5.502" y="7.072" fill="#FFD55F" stroke="#FFD55F" stroke-width="0.25" stroke-miterlimit="10" width="1.017" height="0.84"/>
	
		<rect x="9.48" y="5.392" fill="#FFD55F" stroke="#FFD55F" stroke-width="0.25" stroke-miterlimit="10" width="1.018" height="0.84"/>
	
		<rect x="9.48" y="3.711" fill="#FFD55F" stroke="#FFD55F" stroke-width="0.25" stroke-miterlimit="10" width="1.018" height="0.84"/>
	
		<rect x="9.48" y="8.751" fill="#FFD55F" stroke="#FFD55F" stroke-width="0.25" stroke-miterlimit="10" width="1.018" height="0.84"/>
	
		<rect x="9.48" y="10.477" fill="#FFD55F" stroke="#FFD55F" stroke-width="0.25" stroke-miterlimit="10" width="1.018" height="0.838"/>
	
		<rect x="9.48" y="7.072" fill="#FFD55F" stroke="#FFD55F" stroke-width="0.25" stroke-miterlimit="10" width="1.018" height="0.84"/>
	
		<rect x="9.48" y="11.982" fill="#FFD55F" stroke="#FFD55F" stroke-width="0.25" stroke-miterlimit="10" width="1.018" height="0.84"/>
	
		<rect x="5.502" y="2.031" fill="#FFD55F" stroke="#FFD55F" stroke-width="0.25" stroke-miterlimit="10" width="1.017" height="0.84"/>
	
		<rect x="7.491" y="2.031" fill="#FFD55F" stroke="#FFD55F" stroke-width="0.25" stroke-miterlimit="10" width="1.017" height="0.84"/>
	
		<rect x="9.48" y="2.031" fill="#FFD55F" stroke="#FFD55F" stroke-width="0.25" stroke-miterlimit="10" width="1.018" height="0.84"/>
</g>
</svg>
