<?xml version="1.0" encoding="UTF-8"?>
<!DOCTYPE svg PUBLIC "-//W3C//DTD SVG 1.1//EN" "http://www.w3.org/Graphics/SVG/1.1/DTD/svg11.dtd">
<!-- Creator: CorelDRAW -->
<svg xmlns="http://www.w3.org/2000/svg" xml:space="preserve" width="6.3498mm" height="6.35mm" version="1.1" style="shape-rendering:geometricPrecision; text-rendering:geometricPrecision; image-rendering:optimizeQuality; fill-rule:evenodd; clip-rule:evenodd"
viewBox="0 0 634.98 635"
 xmlns:xlink="http://www.w3.org/1999/xlink"
 xmlns:xodm="http://www.corel.com/coreldraw/odm/2003">
 <defs>
  <style type="text/css">
   <![CDATA[
    .fil0 {fill:#858789;fill-rule:nonzero}
   ]]>
  </style>
 </defs>
 <g id="Camada_x0020_1">
  <metadata id="CorelCorpID_0Corel-Layer"/>
  <path class="fil0" d="M115.02 57.17l0 520.63 173.54 0.01 0 -101.22 57.84 -0.02 0 101.23 173.55 0.01 0 -520.62 -404.93 -0.02zm57.84 57.86l57.85 0 0 57.85 -57.85 0 0 -57.85zm115.7 0l57.84 0 0 57.85 -57.84 0 0 -57.85zm115.69 0l57.86 0 0 57.85 -57.86 0 0 -57.85zm-231.39 115.69l57.85 0 0 57.85 -57.85 0 0 -57.85zm115.7 0l57.84 0 0 57.85 -57.84 0 0 -57.85zm115.69 0l57.86 0 0 57.85 -57.86 0 0 -57.85zm-231.39 115.7l57.85 0 0 57.85 -57.85 0 0 -57.85zm115.7 0l57.84 0 0 57.85 -57.84 0 0 -57.85zm115.69 0l57.86 0 0 57.85 -57.86 0 0 -57.85zm-231.39 115.69l57.85 0 0 57.85 -57.85 0 0 -57.85zm231.39 0l57.86 0 0 57.85 -57.86 0 0 -57.85z"/>
 </g>
</svg>
